<svg width="187" height="61" viewBox="0 0 187 61" fill="none" xmlns="http://www.w3.org/2000/svg">
<mask id="mask0_1201_4" style="mask-type:alpha" maskUnits="userSpaceOnUse" x="0" y="0" width="187" height="61">
<rect width="187" height="61" fill="white"/>
</mask>
<g mask="url(#mask0_1201_4)">
<path d="M72.664 36.36C72.352 36.36 72.064 36.264 71.8 36.072C71.56 35.88 71.44 35.604 71.44 35.244V26.784C71.44 26.376 71.56 26.076 71.8 25.884C72.064 25.668 72.352 25.56 72.664 25.56C72.904 25.56 73.132 25.62 73.348 25.74C73.564 25.836 73.72 26.016 73.816 26.28C73.864 26.424 73.888 26.556 73.888 26.676C74.248 26.292 74.716 25.98 75.292 25.74C75.868 25.5 76.432 25.38 76.984 25.38C78.544 25.38 79.696 26.004 80.44 27.252C80.728 26.748 81.196 26.316 81.844 25.956C82.516 25.572 83.332 25.38 84.292 25.38C85.588 25.38 86.62 25.812 87.388 26.676C88.156 27.54 88.54 28.812 88.54 30.492V35.244C88.54 35.604 88.408 35.88 88.144 36.072C87.88 36.264 87.604 36.36 87.316 36.36C87.004 36.36 86.716 36.264 86.452 36.072C86.212 35.88 86.092 35.604 86.092 35.244V30.708C86.092 28.644 85.324 27.612 83.788 27.612C82.924 27.612 82.3 27.84 81.916 28.296C81.532 28.752 81.292 29.292 81.196 29.916V35.244C81.196 35.604 81.064 35.88 80.8 36.072C80.536 36.264 80.26 36.36 79.972 36.36C79.66 36.36 79.372 36.264 79.108 36.072C78.868 35.88 78.748 35.604 78.748 35.244V30.708C78.748 29.652 78.544 28.872 78.136 28.368C77.728 27.864 77.176 27.612 76.48 27.612C75.448 27.612 74.752 27.936 74.392 28.584C74.056 29.208 73.888 29.904 73.888 30.672V35.244C73.888 35.604 73.756 35.88 73.492 36.072C73.252 36.264 72.976 36.36 72.664 36.36ZM97.36 26.604C97.36 26.22 97.492 25.92 97.756 25.704C98.02 25.488 98.308 25.38 98.62 25.38C99.124 25.38 99.484 25.632 99.7 26.136L102.508 33.012C102.58 33.204 102.712 33.3 102.904 33.3C103.096 33.3 103.228 33.216 103.3 33.048L105.712 26.172C105.904 25.644 106.276 25.38 106.828 25.38C107.164 25.38 107.464 25.488 107.728 25.704C108.016 25.92 108.16 26.184 108.16 26.496C108.16 26.616 108.124 26.784 108.052 27L102.544 40.428C102.352 40.956 101.98 41.22 101.428 41.22C101.116 41.22 100.816 41.112 100.528 40.896C100.264 40.68 100.132 40.416 100.132 40.104C100.132 39.864 100.168 39.696 100.24 39.6L102.004 36C101.5 35.952 101.152 35.712 100.96 35.28L97.432 27.036C97.384 26.844 97.36 26.7 97.36 26.604ZM118.618 36.36C118.306 36.36 118.018 36.264 117.754 36.072C117.49 35.88 117.358 35.592 117.358 35.208V23.076C117.358 22.524 117.526 22.116 117.862 21.852C118.222 21.564 118.606 21.42 119.014 21.42C119.638 21.42 120.094 21.66 120.382 22.14L126.322 31.464C126.442 31.656 126.574 31.752 126.718 31.752C126.934 31.752 127.042 31.584 127.042 31.248L126.898 22.572C126.898 22.188 127.03 21.9 127.294 21.708C127.558 21.516 127.846 21.42 128.158 21.42C128.47 21.42 128.758 21.516 129.022 21.708C129.286 21.9 129.418 22.188 129.418 22.572V34.776C129.418 35.304 129.262 35.7 128.95 35.964C128.638 36.228 128.278 36.36 127.87 36.36C127.582 36.36 127.294 36.288 127.006 36.144C126.742 36.024 126.514 35.82 126.322 35.532L120.49 26.46C120.37 26.268 120.238 26.172 120.094 26.172C119.878 26.172 119.77 26.34 119.77 26.676L119.878 35.208C119.878 35.592 119.746 35.88 119.482 36.072C119.242 36.264 118.954 36.36 118.618 36.36ZM141.118 36.36C140.806 36.36 140.518 36.24 140.254 36C139.99 35.784 139.858 35.52 139.858 35.208V23.472C139.858 22.92 140.038 22.476 140.398 22.14C140.782 21.78 141.226 21.6 141.73 21.6H147.346C147.754 21.6 148.042 21.708 148.21 21.924C148.402 22.14 148.498 22.404 148.498 22.716C148.498 23.028 148.39 23.292 148.174 23.508C147.958 23.724 147.682 23.832 147.346 23.832H143.314C142.69 23.832 142.378 24.144 142.378 24.768V26.82C142.378 27.444 142.666 27.756 143.242 27.756H147.022C147.43 27.756 147.718 27.876 147.886 28.116C148.078 28.332 148.174 28.584 148.174 28.872C148.174 29.16 148.066 29.424 147.85 29.664C147.634 29.88 147.358 29.988 147.022 29.988H143.242C142.666 29.988 142.378 30.288 142.378 30.888V35.208C142.378 35.52 142.246 35.784 141.982 36C141.742 36.24 141.454 36.36 141.118 36.36ZM162.53 36.36C162.146 36.36 161.834 36.252 161.594 36.036C161.378 35.82 161.27 35.544 161.27 35.208V24.732C161.27 24.132 160.958 23.832 160.334 23.832H158.066C157.322 23.832 156.95 23.46 156.95 22.716C156.95 21.972 157.322 21.6 158.066 21.6H166.958C167.294 21.6 167.57 21.708 167.786 21.924C168.002 22.116 168.11 22.38 168.11 22.716C168.11 23.052 168.002 23.328 167.786 23.544C167.57 23.736 167.294 23.832 166.958 23.832H164.726C164.102 23.832 163.79 24.132 163.79 24.732V35.208C163.79 35.544 163.67 35.82 163.43 36.036C163.214 36.252 162.914 36.36 162.53 36.36ZM180.864 36.36C180.168 36.36 179.46 36.264 178.74 36.072C178.02 35.904 177.384 35.628 176.832 35.244C176.544 34.98 176.4 34.692 176.4 34.38C176.4 34.068 176.52 33.792 176.76 33.552C177.024 33.312 177.312 33.192 177.624 33.192C177.792 33.192 177.96 33.24 178.128 33.336C178.56 33.6 179.052 33.816 179.604 33.984C180.18 34.128 180.72 34.2 181.224 34.2C181.704 34.2 182.112 34.116 182.448 33.948C182.808 33.78 182.988 33.504 182.988 33.12C182.988 32.736 182.82 32.448 182.484 32.256C182.148 32.064 181.572 31.92 180.756 31.824C180.42 31.776 180.012 31.716 179.532 31.644C179.076 31.572 178.62 31.44 178.164 31.248C177.708 31.056 177.324 30.768 177.012 30.384C176.7 30 176.544 29.484 176.544 28.836C176.544 27.78 176.928 26.94 177.696 26.316C178.488 25.692 179.544 25.38 180.864 25.38C181.632 25.38 182.352 25.476 183.024 25.668C183.72 25.86 184.236 26.1 184.572 26.388C184.836 26.604 184.968 26.856 184.968 27.144C184.968 27.456 184.86 27.732 184.644 27.972C184.428 28.212 184.164 28.332 183.852 28.332C183.684 28.332 183.528 28.296 183.384 28.224C183 28.008 182.568 27.852 182.088 27.756C181.632 27.636 181.188 27.576 180.756 27.576C180.252 27.576 179.82 27.66 179.46 27.828C179.124 27.972 178.956 28.212 178.956 28.548C178.956 28.788 179.052 29.004 179.244 29.196C179.46 29.364 180 29.508 180.864 29.628C181.272 29.676 181.728 29.748 182.232 29.844C182.76 29.94 183.264 30.096 183.744 30.312C184.224 30.504 184.62 30.816 184.932 31.248C185.244 31.68 185.4 32.268 185.4 33.012C185.4 33.78 185.184 34.416 184.752 34.92C184.32 35.4 183.756 35.76 183.06 36C182.388 36.24 181.656 36.36 180.864 36.36Z" fill="white"/>
<circle cx="28.5" cy="30.5" r="28.5" fill="url(#paint0_linear_1201_4)"/>
<path d="M18.6245 45.72C17.6645 45.72 16.8725 45.456 16.2485 44.928C15.6725 44.352 15.3845 43.608 15.3845 42.696V19.296C15.3845 18.048 15.7685 17.112 16.5365 16.488C17.3045 15.816 18.1685 15.48 19.1285 15.48C19.8005 15.48 20.4485 15.648 21.0725 15.984C21.6965 16.272 22.2245 16.752 22.6565 17.424L33.0245 33.048C33.2165 33.384 33.5045 33.552 33.8885 33.552C34.3685 33.552 34.6085 33.264 34.6085 32.688L34.1045 18.504C34.0565 17.544 34.3445 16.8 34.9685 16.272C35.5925 15.744 36.3845 15.48 37.3445 15.48C38.3045 15.48 39.0725 15.744 39.6485 16.272C40.2725 16.8 40.5845 17.544 40.5845 18.504V41.832C40.5845 43.032 40.2005 43.968 39.4325 44.64C38.6645 45.312 37.8005 45.648 36.8405 45.648C36.2165 45.648 35.5925 45.48 34.9685 45.144C34.3445 44.856 33.8165 44.376 33.3845 43.704L23.0885 27.576C22.8965 27.24 22.6085 27.072 22.2245 27.072C21.6965 27.072 21.4325 27.384 21.4325 28.008L21.8645 42.696C21.9125 43.608 21.6245 44.352 21.0005 44.928C20.3765 45.456 19.5845 45.72 18.6245 45.72Z" fill="#0A0A0F"/>
</g>
<defs>
<linearGradient id="paint0_linear_1201_4" x1="28" y1="30" x2="47.5" y2="51.5" gradientUnits="userSpaceOnUse">
<stop stop-color="#AD6CCA"/>
<stop offset="1" stop-color="#E0AFF5"/>
</linearGradient>
</defs>
</svg>
